<?xml version="1.0" standalone="no"?>
<!DOCTYPE svg PUBLIC "-//W3C//DTD SVG 20010904//EN"
 "http://www.w3.org/TR/2001/REC-SVG-20010904/DTD/svg10.dtd">
<svg version="1.0" xmlns="http://www.w3.org/2000/svg"
 width="1280.000000pt" height="1075.000000pt" viewBox="0 0 1280.000000 1075.000000"
 preserveAspectRatio="xMidYMid meet">
<g transform="translate(0.000000,1075.000000) scale(0.100000,-0.100000)"
fill="#000000" stroke="none">
<path d="M5151 9815 c-251 -57 -426 -177 -560 -384 -22 -35 -43 -72 -46 -82
-10 -30 -32 -22 -45 16 -18 55 -92 128 -170 169 -306 161 -884 109 -1146 -102
-106 -86 -163 -213 -149 -334 7 -60 7 -61 -16 -55 -13 3 -52 17 -86 31 -115
49 -226 58 -360 30 -332 -68 -593 -352 -593 -644 0 -112 49 -250 129 -369 23
-33 41 -62 41 -65 0 -2 -28 -21 -62 -42 -127 -77 -226 -209 -263 -350 -19 -75
-19 -223 0 -299 60 -228 237 -382 486 -424 l104 -18 -3 -104 c-4 -112 14 -192
61 -269 32 -53 114 -136 168 -171 l49 -31 0 -79 c0 -171 50 -292 174 -415 64
-65 98 -90 166 -122 110 -53 230 -81 386 -90 l126 -7 1 -101 c2 -94 4 -105 40
-177 156 -316 617 -431 1168 -292 54 14 156 45 228 70 72 26 135 44 140 41 5
-3 11 -30 13 -60 11 -128 124 -269 272 -341 112 -54 211 -76 366 -82 168 -7
302 8 480 53 74 18 137 30 140 26 3 -4 12 -25 19 -47 43 -129 210 -285 380
-356 312 -131 628 -34 887 271 42 49 80 90 84 90 5 0 21 -24 38 -53 82 -145
290 -275 551 -344 124 -33 356 -38 461 -10 206 55 343 179 411 370 13 34 26
67 31 73 6 9 30 5 86 -14 72 -24 90 -26 262 -27 161 0 197 3 275 23 202 51
344 151 412 290 35 69 38 83 41 177 3 82 0 118 -18 186 -37 139 -38 131 12
156 89 43 209 175 271 298 74 148 89 323 36 435 -65 140 -225 234 -470 276
-52 8 -97 19 -101 22 -4 4 11 43 33 87 25 51 44 106 51 150 7 44 27 104 54
160 73 153 89 220 89 370 0 112 -3 138 -23 187 -35 88 -81 148 -158 206 -120
91 -282 139 -502 149 -80 4 -125 10 -128 18 -3 6 7 36 20 67 83 187 78 385
-14 528 -76 119 -221 214 -400 262 -75 20 -108 23 -275 22 -167 0 -205 -3
-316 -27 -113 -24 -342 -97 -442 -141 -59 -26 -57 0 11 111 72 119 135 243
128 251 -3 3 -71 -7 -151 -22 l-145 -28 -47 42 c-99 87 -274 169 -428 200 -66
13 -89 26 -81 46 12 31 28 366 18 376 -16 16 -192 -103 -360 -245 l-84 -71
-87 17 c-52 10 -137 17 -210 17 -116 0 -122 1 -131 23 -5 12 -26 67 -45 122
-20 55 -68 165 -106 245 l-70 145 -19 -25 c-26 -33 -124 -213 -149 -272 -11
-27 -25 -48 -30 -48 -6 0 -23 19 -39 43 -86 124 -237 221 -433 278 -98 28
-342 36 -438 14z"/>
<path d="M2997 4840 c-165 -339 -199 -459 -163 -582 29 -101 127 -186 233
-203 95 -15 212 48 265 141 61 109 56 200 -19 389 -39 99 -183 398 -206 430
-14 18 -21 7 -110 -175z"/>
<path d="M4135 4322 c-76 -129 -191 -368 -220 -455 -33 -102 -31 -157 9 -235
50 -99 143 -152 266 -152 83 0 153 32 209 96 71 81 87 171 50 285 -37 115
-248 530 -268 529 -3 0 -24 -31 -46 -68z"/>
<path d="M5343 4263 c-153 -271 -218 -431 -211 -518 6 -63 32 -119 78 -165 52
-52 104 -74 187 -78 60 -3 80 0 125 20 91 42 152 120 164 212 8 52 -18 145
-72 264 -41 91 -196 372 -205 372 -3 0 -33 -48 -66 -107z"/>
<path d="M8726 3828 c-122 -250 -150 -331 -144 -418 6 -77 32 -134 84 -180 51
-44 93 -60 159 -60 100 0 176 50 221 145 36 76 33 152 -12 273 -37 99 -190
419 -206 428 -5 3 -51 -82 -102 -188z"/>
<path d="M7835 3934 c-75 -133 -174 -341 -199 -416 -47 -138 -26 -241 64 -321
57 -52 97 -67 177 -67 81 0 134 22 188 75 78 78 97 182 56 305 -23 69 -199
429 -230 469 l-18 23 -38 -68z"/>
<path d="M6933 3878 c-46 -59 -219 -404 -252 -505 -51 -153 1 -293 133 -358
181 -89 388 16 421 212 9 56 -13 136 -73 270 -53 120 -201 393 -212 393 -4 0
-12 -6 -17 -12z"/>
</g>
</svg>
